<?xml version="1.0" encoding="utf-8"?>
<!-- Generator: Adobe Illustrator 24.2.1, SVG Export Plug-In . SVG Version: 6.00 Build 0)  -->
<svg version="1.1" id="Layer_1" xmlns="http://www.w3.org/2000/svg" xmlns:xlink="http://www.w3.org/1999/xlink" x="0px" y="0px"
	 viewBox="0 0 32 32" style="enable-background:new 0 0 32 32;" xml:space="preserve">
<style type="text/css">
	.st0{fill-rule:evenodd;clip-rule:evenodd;fill:#D0EAF1;}
</style>
<g>
	<g transform="translate(1.000000, 0.000000)">
		<path class="st0" d="M-0.65,16.05c0-8.58,7.01-15.57,15.62-15.57c8.61,0,15.62,6.98,15.62,15.57s-7.01,15.57-15.62,15.57
			C6.35,31.62-0.65,24.64-0.65,16.05L-0.65,16.05z M26.84,16.05c0-6.52-5.31-11.82-11.84-11.82S3.17,9.53,3.17,16.05
			S8.48,27.87,15,27.87S26.84,22.57,26.84,16.05L26.84,16.05z"/>
		<path class="st0" d="M15,9.81l-8.1,6.22l8.1,6.12V18h6.51c0.71,0,1.64-0.67,1.64-1.98c0-1.3-1-2.02-1.71-2.02H15V9.81L15,9.81z"/>
	</g>
</g>
</svg>
