<?xml version="1.0" encoding="utf-8"?>
<!-- Generator: Adobe Illustrator 24.2.1, SVG Export Plug-In . SVG Version: 6.00 Build 0)  -->
<svg version="1.1" id="Layer_1" xmlns="http://www.w3.org/2000/svg" xmlns:xlink="http://www.w3.org/1999/xlink" x="0px" y="0px"
	 viewBox="0 0 32 32" style="enable-background:new 0 0 32 32;" xml:space="preserve">
<style type="text/css">
	.st0{fill-rule:evenodd;clip-rule:evenodd;fill:#D0EAF1;}
</style>
<g>
	<g transform="translate(1.000000, 0.000000)">
		<path class="st0" d="M6.74,12.36l1.54,12.76c0,0.45,0.46,0.82,1.03,0.82h11.38c0.57,0,1.03-0.37,1.03-0.82l1.54-12.76H6.74
			L6.74,12.36z M15.83,23.54h-1.61v-8.8h1.61V23.54L15.83,23.54z M18.84,23.54h-1.61l1.5-8.8h1.61L18.84,23.54L18.84,23.54z
			 M12.83,23.54h-1.61l-1.5-8.8h1.61L12.83,23.54L12.83,23.54z"/>
		<path class="st0" d="M23.4,8.67h-4.71V6.94c0-0.49-0.68-0.88-1.29-0.88h-4.65c-0.6,0-1.43,0.28-1.43,0.76v1.74L6.6,8.67
			c-0.6,0-1.09,0.39-1.09,0.88v1.44h18.99V9.55C24.49,9.07,24.01,8.67,23.4,8.67L23.4,8.67z M12.7,7.85c0-0.39,0.53-0.7,1.18-0.7
			h2.35c0.65,0,1.17,0.32,1.17,0.7v0.83h-4.7L12.7,7.85L12.7,7.85z"/>
	</g>
</g>
</svg>
