<?xml version="1.0" encoding="utf-8"?>
<!-- Generator: Adobe Illustrator 24.2.1, SVG Export Plug-In . SVG Version: 6.00 Build 0)  -->
<svg version="1.1" id="Layer_1" xmlns="http://www.w3.org/2000/svg" xmlns:xlink="http://www.w3.org/1999/xlink" x="0px" y="0px"
	 viewBox="0 0 32 32" style="enable-background:new 0 0 32 32;" xml:space="preserve">
<style type="text/css">
	.st0{fill:#BED2D2;}
</style>
<path class="st0" d="M30.7,1.86c-5.42,0.2-9.82,1.37-13.18,3.18l-1.68,2.81l-0.28-1.6c-0.6,0.42-1.16,0.87-1.67,1.33l-0.84,2.57
	l-0.29-1.43c-2.32,2.59-3.44,5.69-3.36,8.89C12.09,12.26,16.95,7.76,21.48,5l0.55,0.91c-4.29,2.61-8.91,6.91-11.53,11.87h0.69
	c1.13-0.69,2.23-1.53,3.33-2.48l-1.73,0.09l3.09-1.32c2.67-2.49,5.33-5.41,8.17-7.88l-1.39-0.3l3.22-1.2
	C27.43,3.53,29.02,2.54,30.7,1.86L30.7,1.86z M5.77,18.84v1.73h7.67v-1.73H5.77z M6.93,21.64l-1.86,1.64L3.8,28.12l0.83,0.91h10.1
	l0.83-0.9l-1.27-4.84l-1.76-1.64L6.93,21.64L6.93,21.64z"/>
</svg>
