<?xml version="1.0" encoding="utf-8"?>
<!-- Generator: Adobe Illustrator 24.2.1, SVG Export Plug-In . SVG Version: 6.00 Build 0)  -->
<svg version="1.1" id="Layer_1" xmlns="http://www.w3.org/2000/svg" xmlns:xlink="http://www.w3.org/1999/xlink" x="0px" y="0px"
	 viewBox="0 0 64 64" style="enable-background:new 0 0 64 64;" xml:space="preserve">
<style type="text/css">
	.st0{fill:#BDDDDE;}
</style>
<g>
	<g>
		<g>
			<path class="st0" d="M52.78,45.69V4.84h1.54V3.07H15.3c-3.1,0-5.62,2.52-5.62,5.62v44.57H9.7c-0.01,0.14-0.02,0.27-0.02,0.41
				c0,3.1,2.52,5.62,5.62,5.62h5.08v1.65l4.73-2.91l4.73,2.91v-1.65h24.12v-1.77h-3.61v-7.68h3.61v-1.77H15.3
				c-1.49,0-2.84,0.58-3.84,1.53V8.68c0-2.12,1.72-3.84,3.84-3.84h2.63h0.32v40.85h1.77V4.84h30.98v40.85L52.78,45.69L52.78,45.69z
				 M28.07,57.76l-2.96-1.82l-2.96,1.82v-3.2h5.91L28.07,57.76L28.07,57.76z M20.03,49.83h28.55v1.45H35.16v1.77h13.42v1.24H32.8
				v1.77h15.78v1.45H29.84v-4.73h-9.46v4.73h-0.35c-2.12,0-3.84-1.72-3.84-3.84C16.19,51.55,17.91,49.83,20.03,49.83z M15.3,49.83
				h0.64c-0.95,1.01-1.53,2.36-1.53,3.84c0,1.49,0.58,2.84,1.53,3.84H15.3c-2.12,0-3.84-1.72-3.84-3.84
				C11.46,51.55,13.18,49.83,15.3,49.83z"/>
		</g>
	</g>
	<g>
		<g>
			<rect x="31.02" y="51.28" class="st0" width="2.96" height="1.77"/>
		</g>
	</g>
	<g>
		<g>
			<rect x="29.72" y="37.18" class="st0" width="11.82" height="1.77"/>
		</g>
	</g>
	<g>
		<g>
			<rect x="32.09" y="40.13" class="st0" width="7.09" height="1.77"/>
		</g>
	</g>
	<g>
		<g>
			<rect x="32.32" y="34.22" class="st0" width="10.64" height="1.77"/>
		</g>
	</g>
	<g>
		<g>
			<rect x="28.19" y="34.22" class="st0" width="2.96" height="1.77"/>
		</g>
	</g>
	<g>
		<g>
			<polygon class="st0" points="22.39,7.15 22.39,11.05 24.17,11.05 24.17,8.92 47.1,8.92 47.1,10.93 48.88,10.93 48.88,7.15 			"/>
		</g>
	</g>
	<g>
		<g>
			<polygon class="st0" points="47.1,14.48 47.1,43.92 24.17,43.92 24.17,14.6 22.39,14.6 22.39,45.69 48.88,45.69 48.88,14.48 			
				"/>
		</g>
	</g>
	<g>
		<g>
			<path class="st0" d="M40.1,11.75h-1.65c-0.92,2.31-1.57,2.96-3.88,3.88v1.65c2.31,0.92,2.96,1.57,3.88,3.88h1.65
				c0.92-2.31,1.57-2.96,3.88-3.88v-1.65C41.67,14.71,41.02,14.06,40.1,11.75z M39.28,18.74c-0.59-1.02-1.27-1.7-2.29-2.29
				c1.02-0.59,1.7-1.27,2.29-2.29c0.59,1.02,1.27,1.7,2.29,2.29C40.55,17.04,39.87,17.73,39.28,18.74z"/>
		</g>
	</g>
	<g>
		<g>
			<path class="st0" d="M36.49,20.31h-1.65c-0.64,1.62-1.07,2.05-2.7,2.7v1.65c1.62,0.64,2.05,1.07,2.7,2.7h1.65
				c0.64-1.62,1.07-2.05,2.7-2.7v-1.65C37.57,22.36,37.14,21.93,36.49,20.31z M35.67,25.05c-0.34-0.5-0.73-0.89-1.23-1.23
				c0.5-0.34,0.89-0.73,1.23-1.23c0.34,0.5,0.73,0.89,1.23,1.23C36.4,24.17,36.01,24.56,35.67,25.05z"/>
		</g>
	</g>
	<g>
		<g>
			<path class="st0" d="M31.34,15.34h-1.65c-0.64,1.62-1.07,2.05-2.7,2.7v1.65c1.62,0.64,2.05,1.07,2.7,2.7h1.65
				c0.64-1.62,1.07-2.05,2.7-2.7v-1.65C32.41,17.39,31.98,16.97,31.34,15.34z M30.52,20.09c-0.34-0.5-0.73-0.89-1.23-1.23
				c0.5-0.34,0.89-0.73,1.23-1.23c0.34,0.5,0.73,0.89,1.23,1.23C31.24,19.2,30.85,19.59,30.52,20.09z"/>
		</g>
	</g>
</g>
</svg>
