<?xml version="1.0" encoding="utf-8"?>
<!-- Generator: Adobe Illustrator 24.2.1, SVG Export Plug-In . SVG Version: 6.00 Build 0)  -->
<svg version="1.1" id="Layer_1" xmlns="http://www.w3.org/2000/svg" xmlns:xlink="http://www.w3.org/1999/xlink" x="0px" y="0px"
	 viewBox="0 0 64 64" style="enable-background:new 0 0 64 64;" xml:space="preserve">
<style type="text/css">
	.st0{fill:#BDDFDE;}
</style>
<g>
	<path class="st0" d="M60.32,16.66v-2.83C55.63,9.12,49.26,6.1,42.18,5.74c-0.45-0.05-0.9-0.07-1.35-0.07c-3.54,0-6.7,1.59-8.82,4.1
		c-2.25-2.5-5.49-4.07-9.1-4.07c-0.36,0-0.72,0.02-1.08,0.05C14.74,6.1,8.37,9.12,3.68,13.83v2.83l-4.05,1.21v40.46l27.11-5.66
		l1.21,1.62h8.09l1.21-1.62l27.11,5.66V17.87L60.32,16.66z M21.8,43.4c-5.16,0.15-9.98,1.45-14.27,3.65l0.19-31.52
		c3.58-3.38,8.36-5.52,13.63-5.74c3.26,0.22,6.21,1.23,8.73,2.84l-0.08,31.84c-2.25-0.67-4.83-1.06-7.5-1.06
		c-0.25,0-0.5,0-0.75,0.01L21.8,43.4z M56.27,46.96c-4.1-2.11-8.92-3.41-14.03-3.56c-0.23,0-0.44-0.01-0.65-0.01
		c-2.67,0-5.25,0.39-7.68,1.11l0.19-31.97c2.43-1.54,5.35-2.54,8.48-2.75c5.36,0.22,10.12,2.37,13.7,5.75L56.27,46.96L56.27,46.96z"
		/>
</g>
</svg>
