<?xml version="1.0" encoding="utf-8"?>
<!-- Generator: Adobe Illustrator 24.2.1, SVG Export Plug-In . SVG Version: 6.00 Build 0)  -->
<svg version="1.1" id="Layer_1" xmlns="http://www.w3.org/2000/svg" xmlns:xlink="http://www.w3.org/1999/xlink" x="0px" y="0px"
	 viewBox="0 0 64 64" style="enable-background:new 0 0 64 64;" xml:space="preserve">
<style type="text/css">
	.st0{fill:#BDDFDD;}
</style>
<path class="st0" d="M6.91,1.06c-0.04,0-0.09,0-0.13,0C6.25,1.07,5.73,1.27,5.3,1.65C4.31,2.52,4.22,4.02,5.09,5
	c0.57,0.65,1.43,0.91,2.22,0.76l7.56,8.56l-6.59,5.82l3.16,3.58c1.27-2.79,2.91-5.16,4.89-7.15l0.9,4.73
	c3.28-0.82,6.52-1.38,9.72-1.68l-3.13-3.54l-5.06-1.63c2.24-1.69,4.8-3,7.67-3.98l-3.16-3.58L16.7,12.7L9.13,4.12
	C9.36,3.36,9.21,2.5,8.64,1.86C8.19,1.34,7.55,1.07,6.91,1.06L6.91,1.06z M57.18,1.06c-0.64,0.01-1.27,0.28-1.73,0.8
	c-0.57,0.64-0.72,1.5-0.49,2.27l-7.57,8.57L40.8,6.88l-3.16,3.58c2.86,0.98,5.43,2.3,7.67,3.98l-5.06,1.63l-3.04,3.44
	c3.23,0.24,6.46,0.75,9.69,1.5l0.85-4.45c1.98,1.98,3.63,4.35,4.89,7.15l3.16-3.58l-6.59-5.82l7.56-8.56C57.58,5.9,58.43,5.65,59,5
	c0.87-0.98,0.77-2.48-0.21-3.35c-0.43-0.38-0.96-0.58-1.49-0.59C57.26,1.05,57.22,1.05,57.18,1.06L57.18,1.06z M32.8,21.78
	c-5.17-0.01-10.39,0.68-15.77,2.1c-0.27,11.83,4.51,27.38,15.49,33.99c10.63-6.42,16.01-22.22,15.76-33.99
	C43.08,22.51,37.96,21.8,32.8,21.78L32.8,21.78z M17.48,41.86L6.12,54.71l-1.6,8.36l8.09-2.61l8.96-10.14
	C19.89,47.69,18.54,44.82,17.48,41.86L17.48,41.86z M47.32,42.65c-1.14,2.91-2.56,5.71-4.28,8.26l8.43,9.54l8.09,2.61l-1.6-8.36
	L47.32,42.65L47.32,42.65z"/>
</svg>
