<?xml version="1.0" encoding="utf-8"?>
<!-- Generator: Adobe Illustrator 24.2.1, SVG Export Plug-In . SVG Version: 6.00 Build 0)  -->
<svg version="1.1" id="Layer_1" xmlns="http://www.w3.org/2000/svg" xmlns:xlink="http://www.w3.org/1999/xlink" x="0px" y="0px"
	 viewBox="0 0 64 64" style="enable-background:new 0 0 64 64;" xml:space="preserve">
<style type="text/css">
	.st0{fill:#BDDDDE;}
</style>
<g>
	<path class="st0" d="M11.37,44.8l1.35-3.09c3.35,1.17,6.77,2.04,10.22,2.57v4.33C18.99,47.83,15.11,46.57,11.37,44.8z"/>
	<rect x="27.38" y="42.77" class="st0" width="8.9" height="8.89"/>
	<path class="st0" d="M40.73,44.26c3.43-0.52,6.8-1.37,10.22-2.55l1.35,3.09c-3.76,1.78-7.64,3.03-11.57,3.79V44.26z"/>
	<path class="st0" d="M27.44,8.02l0.35-0.88c1.58-3.92,5.38-6.49,9.61-6.49h1.43c3.05,0,5.84,1.71,7.22,4.43l0,0
		c1.35,2.66,4.08,4.33,7.07,4.33h0.95l-1.59,2.12c-0.99,1.32-2.61,1.97-4.25,1.71l-6.44-1.06c-0.8-0.15-1.62,0.18-2.12,0.83
		c-0.5,0.64-0.61,1.51-0.28,2.26l8.73,19.98c0.57,1.3-0.16,2.79-1.53,3.18c-1.93,0.56-3.86,1-5.8,1.32
		c-0.65,0.11-1.3-0.08-1.82-0.49c-0.75-0.58-1.68-0.94-2.7-0.94h-8.89c-1.03,0-1.96,0.36-2.71,0.95c-0.52,0.41-1.18,0.6-1.83,0.49
		c-1.94-0.33-3.87-0.78-5.78-1.33c-1.36-0.4-2.09-1.88-1.52-3.18L27.44,8.02z"/>
	<path class="st0" d="M31.83,62.78c-19,0-31.13-5.27-31.13-8.89c0-1.37,2.1-3.6,7.79-5.58c4.73,2.35,9.67,3.98,14.72,4.86
		c0.62,1.71,2.25,2.95,4.17,2.95h8.89c1.93,0,3.56-1.25,4.18-2.97c5.02-0.86,9.96-2.48,14.71-4.83c5.7,1.98,7.8,4.21,7.8,5.58
		C62.96,57.51,50.83,62.78,31.83,62.78L31.83,62.78z"/>
</g>
</svg>
